<?xml version="1.0" encoding="utf-8"?>
<!-- Svg Vector Icons : http://www.onlinewebfonts.com/icon -->
<!DOCTYPE svg PUBLIC "-//W3C//DTD SVG 1.1//EN" "http://www.w3.org/Graphics/SVG/1.1/DTD/svg11.dtd">
<svg version="1.1" xmlns="http://www.w3.org/2000/svg" xmlns:xlink="http://www.w3.org/1999/xlink" x="0px" y="0px" viewBox="0 0 1000 1000" enable-background="new 0 0 1000 1000" xml:space="preserve">
<metadata> Svg Vector Icons : http://www.onlinewebfonts.com/icon </metadata>
<g><path d="M382.5,732.8C339.9,886.2,272.1,1001.4,231.1,990c-41-11.4-39.7-145,2.9-298.5C276.7,538.1,344.4,423,385.4,434.3C426.4,445.7,425.1,579.3,382.5,732.8z"/><path d="M187.2,262.6C65.1,160.4-11.8,51.1,15.5,18.4c27.3-32.6,148.4,23.8,270.5,126.1C408.2,246.7,485,356,457.7,388.6C430.4,421.3,309.3,364.8,187.2,262.6z"/><path d="M754.5,428.2c-146.1,63.5-278.2,83.4-295.2,44.4c-17-39,87.7-122.1,233.7-185.6c146-63.5,278.2-83.4,295.1-44.4C1005.2,281.6,900.5,364.7,754.5,428.2z"/></g>
</svg>